<svg width="734" height="741" viewBox="0 0 734 741" fill="none" xmlns="http://www.w3.org/2000/svg">
<g opacity="0.25">
<path d="M124.683 420.08C124.739 419.871 124.797 419.723 124.855 419.64C124.798 419.787 124.74 419.934 124.683 420.08C123.354 425.081 123.605 465.036 163.294 489.89C187.2 500.461 240.374 506.804 261.828 447.607C317.986 437.483 459.86 428.675 537.553 442.927C544.659 468.529 574.991 513.711 639.473 489.626C618.419 518.172 563.035 556.677 509.93 482.333C508.099 478.987 496.524 471.079 464.865 466.208C404.916 465.427 282.017 467.946 264.249 470.957C223.759 559.944 85.1915 521.579 124.683 420.08Z" fill="#806C07"/>
<path d="M119.084 342.446C87.0688 320.004 100.865 283.295 111.765 267.746C106.878 322.396 140.866 342.591 158.47 345.858C167.401 356.957 161.665 368.262 157.68 372.527L144.306 387.35C153.152 364.513 131.177 347.899 119.084 342.446Z" fill="#806C07"/>
<g filter="url(#filter0_i_45_166)">
<path d="M173.699 217.802C204.979 212.229 242.663 242.187 257.596 257.863C292.517 264.843 434.762 275.804 504.618 256.022C531.034 197.039 580.331 210.137 601.677 224.058C664.587 265.658 639.501 322.448 619.094 345.643C608.519 360.73 619.622 380.389 626.496 388.332C669.384 415.896 658.406 459.66 647.556 478.096C607.516 521.904 536.604 472.195 534.607 439.545C426.81 426.48 307.443 439.681 261.235 447.915C240.506 505.885 186.756 500.915 162.472 491.184C99.0685 446.738 133.353 393.688 158.421 372.718C167.851 363.703 157.658 347.183 155.572 345.721C75.6116 317.795 109.337 216.435 173.699 217.802Z" fill="#C8B652"/>
<path d="M173.699 217.802C204.979 212.229 242.663 242.187 257.596 257.863C292.517 264.843 434.762 275.804 504.618 256.022C531.034 197.039 580.331 210.137 601.677 224.058C664.587 265.658 639.501 322.448 619.094 345.643C608.519 360.73 619.622 380.389 626.496 388.332C669.384 415.896 658.406 459.66 647.556 478.096C607.516 521.904 536.604 472.195 534.607 439.545C426.81 426.48 307.443 439.681 261.235 447.915C240.506 505.885 186.756 500.915 162.472 491.184C99.0685 446.738 133.353 393.688 158.421 372.718C167.851 363.703 157.658 347.183 155.572 345.721C75.6116 317.795 109.337 216.435 173.699 217.802Z" stroke="black"/>
</g>
<circle cx="283.778" cy="351.315" r="20.9804" transform="rotate(35.0301 283.778 351.315)" fill="white"/>
<path d="M408.482 356.172C401.725 365.81 390.484 366.33 381.488 360.024C372.492 353.718 371.183 344.401 377.94 334.762C384.697 325.123 393.901 323.176 402.898 329.482C411.894 335.789 415.238 346.533 408.482 356.172Z" fill="white"/>
<path d="M490.635 359.798C481.134 353.764 480.473 342.536 486.506 333.035C492.539 323.533 501.616 321.507 511.118 327.54C520.62 333.573 522.646 342.65 516.613 352.152C510.58 361.654 500.137 365.831 490.635 359.798Z" fill="white"/>
<path d="M174.945 217.64C78.6835 231.876 104.418 336.902 158.368 345.725C169.008 357.401 163.066 370.106 158.765 374.998C98.7351 427.812 138.8 474.348 166.336 491.015C229.132 511.838 256.411 470.685 262.201 447.506C340.37 428.495 477.929 434.422 536.937 439.761C539.648 462.749 563.015 480.887 574.36 487.082C671.626 523.633 675.602 420.983 635.28 392.717C611.396 375.975 616.284 353.921 621.069 345.852C663.52 291.26 631.715 246.12 610.506 230.374C556.387 188.22 518 230.548 505.571 256.982C454.144 273.651 319.765 264.681 259.004 258.113C205.591 207.492 180.205 221.327 174.945 217.64Z" stroke="#574C13" stroke-width="6"/>
<path d="M120.756 247.754C112.624 255.598 91.9737 291.067 100.788 317.562C103.126 321.741 105.986 336.443 130.134 350.831C129.658 351.51 153.71 362.279 145.255 389.366" stroke="#574C13" stroke-width="6"/>
<path d="M146.718 387.278C127.477 405.97 95.9474 456.11 143.129 505.882C165.42 524.117 221.207 542.35 266.029 469.404C271.32 473.113 442.683 457.561 473.508 466.123C483.604 467.982 504.961 473.039 509.625 478.395C529.44 511.419 584.217 558.862 644.803 484.442" stroke="#574C13" stroke-width="6"/>
<circle cx="284.688" cy="350.224" r="17.3794" transform="rotate(35.0301 284.688 350.224)" stroke="#574C13" stroke-width="6"/>
<path d="M405.69 332.935C414.982 339.448 417.356 351.008 412.032 358.603C406.707 366.199 395.03 367.91 385.739 361.397C376.447 354.883 374.073 343.323 379.398 335.727C384.722 328.132 396.399 326.421 405.69 332.935Z" stroke="#574C13" stroke-width="6"/>
<path d="M512.545 326.953C520.14 332.278 521.852 343.955 515.338 353.247C508.825 362.538 497.264 364.912 489.669 359.588C482.073 354.263 480.363 342.586 486.876 333.295C493.389 324.003 504.949 321.629 512.545 326.953Z" stroke="#574C13" stroke-width="6"/>
</g>
<defs>
<filter id="filter0_i_45_166" x="108.824" y="209.222" width="548.537" height="287.952" filterUnits="userSpaceOnUse" color-interpolation-filters="sRGB">
<feFlood flood-opacity="0" result="BackgroundImageFix"/>
<feBlend mode="normal" in="SourceGraphic" in2="BackgroundImageFix" result="shape"/>
<feColorMatrix in="SourceAlpha" type="matrix" values="0 0 0 0 0 0 0 0 0 0 0 0 0 0 0 0 0 0 127 0" result="hardAlpha"/>
<feOffset dy="-3"/>
<feGaussianBlur stdDeviation="2"/>
<feComposite in2="hardAlpha" operator="arithmetic" k2="-1" k3="1"/>
<feColorMatrix type="matrix" values="0 0 0 0 0 0 0 0 0 0 0 0 0 0 0 0 0 0 0.25 0"/>
<feBlend mode="normal" in2="shape" result="effect1_innerShadow_45_166"/>
</filter>
</defs>
</svg>
